<svg height="30pt" viewBox="0 0 511 511.99843" width="30pt" xmlns="http://www.w3.org/2000/svg"><path d="m503.957031 511.992188c-1.304687 0-2.609375-.296876-3.8125-.894532l-115.78125-57.890625-124.257812 57.992188c-2.636719 1.230469-5.734375 1.03125-8.191407-.539063-2.46875-1.578125-3.953124-4.289062-3.953124-7.199218v-435.195313c0-3.316406 1.921874-6.328125 4.925781-7.730469l127.996093-59.730468c2.363282-1.101563 5.09375-1.074219 7.425782.101562l119.464844 59.730469c2.890624 1.445312 4.71875 4.394531 4.71875 7.628906v435.195313c0 2.960937-1.539063 5.699218-4.046876 7.261718-1.375.835938-2.925781 1.269532-4.488281 1.269532zm-238.929687-438.296876v416.359376l115.855468-54.066407c2.363282-1.101562 5.09375-1.066406 7.425782.101563l107.117187 53.554687v-416.105469l-111.0625-55.53125zm0 0"/><path d="m128.496094 452.261719c-4.710938 0-8.53125-3.824219-8.53125-8.535157v-230.394531c0-4.710937 3.820312-8.535156 8.53125-8.535156 4.710937 0 8.535156 3.824219 8.535156 8.535156v230.394531c0 4.710938-3.824219 8.535157-8.535156 8.535157zm0 0"/><path d="m384.492188 452.261719c-4.710938 0-8.53125-3.824219-8.53125-8.535157v-435.191406c0-4.710937 3.820312-8.535156 8.53125-8.535156 4.710937 0 8.535156 3.824219 8.535156 8.535156v435.191406c0 4.710938-3.824219 8.535157-8.535156 8.535157zm0 0"/><path d="m111.429688 221.863281c-61.164063 0-110.929688-49.765625-110.929688-110.929687 0-61.167969 49.765625-110.933594 110.929688-110.933594 61.167968 0 110.933593 49.765625 110.933593 110.933594 0 61.164062-49.765625 110.929687-110.933593 110.929687zm0-204.796875c-51.753907 0-93.863282 42.113282-93.863282 93.867188s42.109375 93.863281 93.863282 93.863281c51.753906 0 93.867187-42.109375 93.867187-93.863281s-42.113281-93.867188-93.867187-93.867188zm0 0"/><path d="m60.230469 170.664062c-2.234375 0-4.410157-.878906-6.03125-2.5-2.175781-2.175781-3.011719-5.347656-2.183594-8.308593l22.234375-80.164063c.796875-2.890625 3.046875-5.144531 5.941406-5.945312l80.160156-22.238282c2.945313-.84375 6.144532.007813 8.3125 2.183594 2.175782 2.175782 3.011719 5.351563 2.183594 8.3125l-22.238281 80.160156c-.792969 2.894532-3.046875 5.144532-5.9375 5.949219l-80.160156 22.238281c-.753907.210938-1.519531.3125-2.28125.3125zm29.167969-81.761718-16.914063 60.976562 60.980469-16.914062 16.910156-60.976563zm0 0"/><path d="m9.03125 511.992188c-1.558594 0-3.113281-.425782-4.488281-1.269532-2.507813-1.5625-4.042969-4.308594-4.042969-7.261718v-392.519532c0-4.710937 3.820312-8.53125 8.53125-8.53125s8.535156 3.820313 8.535156 8.53125c0 51.753906 42.109375 93.855469 93.863282 93.855469 51.753906 0 93.867187-42.109375 93.867187-93.863281 0-29.535156-13.585937-56.78125-37.273437-74.742188-3.472657-2.636718-4.402344-7.46875-2.152344-11.203125 2.253906-3.738281 6.964844-5.164062 10.914062-3.328125l83.3125 38.875c3.011719 1.402344 4.929688 4.414063 4.929688 7.730469v435.195313c0 2.917968-1.484375 5.632812-3.949219 7.191406-2.46875 1.5625-5.554687 1.757812-8.191406.539062l-124.261719-57.992187-115.777344 57.890625c-1.203125.597656-2.507812.902344-3.816406.902344zm119.464844-76.796876c1.238281 0 2.46875.265626 3.609375.800782l115.855469 54.058594v-416.359376l-40.949219-19.117187c9.964843 16.804687 15.351562 36.121094 15.351562 56.355469 0 61.164062-49.765625 110.929687-110.933593 110.929687-39.472657 0-74.195313-20.726562-93.863282-51.863281v319.652344l107.117188-53.554688c1.195312-.605468 2.507812-.902344 3.8125-.902344zm0 0"/><path d="m350.359375 255.996094c-2.183594 0-4.367187-.835938-6.03125-2.5l-59.734375-59.730469c-3.335938-3.335937-3.335938-8.730469 0-12.066406 3.335938-3.335938 8.730469-3.335938 12.066406 0l59.734375 59.730469c3.335938 3.339843 3.335938 8.730468 0 12.066406-1.664062 1.664062-3.851562 2.5-6.035156 2.5zm0 0"/><path d="m290.628906 255.996094c-2.1875 0-4.371094-.835938-6.035156-2.5-3.335938-3.335938-3.335938-8.726563 0-12.066406l59.734375-59.730469c3.335937-3.335938 8.726563-3.335938 12.066406 0 3.335938 3.335937 3.335938 8.730469 0 12.066406l-59.734375 59.730469c-1.664062 1.664062-3.847656 2.5-6.03125 2.5zm0 0"/><path d="m401.441406 232.292969c-.632812 0-1.265625-.070313-1.90625-.214844-4.90625-1.117187-9.964844-1.679687-15.042968-1.679687-4.710938 0-8.53125-3.824219-8.53125-8.535157 0-4.707031 3.820312-8.53125 8.53125-8.53125 6.359374 0 12.691406.707031 18.84375 2.105469 4.589843 1.050781 7.464843 5.625 6.421874 10.214844-.902343 3.953125-4.425781 6.640625-8.316406 6.640625zm0 0"/><path d="m384.492188 383.996094h-22.929688c-4.707031 0-8.53125-3.824219-8.53125-8.535156 0-4.710938 3.824219-8.53125 8.53125-8.53125h22.929688c4.054687 0 8.117187-.359376 12.074218-1.074219 4.652344-.890625 9.082032 2.242187 9.917969 6.875.835937 4.644531-2.246094 9.082031-6.878906 9.917969-4.976563.886718-10.050781 1.347656-15.113281 1.347656zm-68.664063 0h-36.59375c-4.707031 0-8.53125-3.824219-8.53125-8.535156 0-4.710938 3.824219-8.53125 8.53125-8.53125h36.59375c4.707031 0 8.53125 3.820312 8.53125 8.53125 0 4.710937-3.824219 8.535156-8.53125 8.535156zm-82.332031 0h-36.589844c-4.707031 0-8.53125-3.824219-8.53125-8.535156 0-4.710938 3.824219-8.53125 8.53125-8.53125h36.589844c4.710937 0 8.535156 3.820312 8.535156 8.53125 0 4.710937-3.824219 8.535156-8.535156 8.535156zm-82.328125 0h-36.589844c-4.710937 0-8.53125-3.824219-8.53125-8.535156 0-4.710938 3.820313-8.53125 8.53125-8.53125h36.589844c4.710937 0 8.535156 3.820312 8.535156 8.53125 0 4.710937-3.824219 8.535156-8.535156 8.535156zm286.921875-21.929688c-2.21875 0-4.4375-.863281-6.101563-2.570312-3.292969-3.371094-3.226562-8.773438.144531-12.066406 7.800782-7.621094 13.722657-17.058594 17.152344-27.289063 1.492188-4.46875 6.332032-6.875 10.792969-5.382813 4.472656 1.492188 6.886719 6.332032 5.386719 10.792969-4.277344 12.800781-11.683594 24.585938-21.410156 34.089844-1.664063 1.613281-3.816407 2.425781-5.964844 2.425781zm20.300781-75.734375c-3.722656 0-7.132813-2.449219-8.199219-6.203125-2.953125-10.382812-8.449218-20.078125-15.898437-28.03125-3.21875-3.4375-3.039063-8.839844.390625-12.066406 3.441406-3.207031 8.84375-3.027344 12.066406.394531 9.292969 9.929688 16.164062 22.039063 19.859375 35.027344 1.285156 4.53125-1.339844 9.25-5.871094 10.539063-.796875.238281-1.578125.339843-2.347656.339843zm0 0"/><path d="m68.765625 383.996094h-17.066406c-4.710938 0-8.535157-3.824219-8.535157-8.535156 0-4.710938 3.824219-8.53125 8.535157-8.53125h17.066406c4.710937 0 8.53125 3.820312 8.53125 8.53125 0 4.710937-3.820313 8.535156-8.53125 8.535156zm0 0"/><path d="m102.898438 128c-2.183594 0-4.371094-.835938-6.035157-2.5-3.335937-3.335938-3.335937-8.730469 0-12.066406l17.066407-17.066406c3.335937-3.335938 8.730468-3.335938 12.066406 0 3.335937 3.335937 3.335937 8.730468 0 12.066406l-17.066406 17.066406c-1.664063 1.664062-3.847657 2.5-6.03125 2.5zm0 0"/></svg>